<svg xmlns="http://www.w3.org/2000/svg" width="21" height="20" viewBox="0 0 21 20" fill="none">
  <path d="M16.75 2.1875H15.1875V1.875C15.1875 1.62636 15.0887 1.3879 14.9129 1.21209C14.7371 1.03627 14.4986 0.9375 14.25 0.9375C14.0014 0.9375 13.7629 1.03627 13.5871 1.21209C13.4113 1.3879 13.3125 1.62636 13.3125 1.875V2.1875H7.6875V1.875C7.6875 1.62636 7.58873 1.3879 7.41291 1.21209C7.2371 1.03627 6.99864 0.9375 6.75 0.9375C6.50136 0.9375 6.2629 1.03627 6.08709 1.21209C5.91127 1.3879 5.8125 1.62636 5.8125 1.875V2.1875H4.25C3.8356 2.1875 3.43817 2.35212 3.14515 2.64515C2.85212 2.93817 2.6875 3.3356 2.6875 3.75V16.25C2.6875 16.6644 2.85212 17.0618 3.14515 17.3549C3.43817 17.6479 3.8356 17.8125 4.25 17.8125H16.75C17.1644 17.8125 17.5618 17.6479 17.8549 17.3549C18.1479 17.0618 18.3125 16.6644 18.3125 16.25V3.75C18.3125 3.3356 18.1479 2.93817 17.8549 2.64515C17.5618 2.35212 17.1644 2.1875 16.75 2.1875ZM5.8125 4.0625C5.8125 4.31114 5.91127 4.5496 6.08709 4.72541C6.2629 4.90123 6.50136 5 6.75 5C6.99864 5 7.2371 4.90123 7.41291 4.72541C7.58873 4.5496 7.6875 4.31114 7.6875 4.0625H13.3125C13.3125 4.31114 13.4113 4.5496 13.5871 4.72541C13.7629 4.90123 14.0014 5 14.25 5C14.4986 5 14.7371 4.90123 14.9129 4.72541C15.0887 4.5496 15.1875 4.31114 15.1875 4.0625H16.4375V5.9375H4.5625V4.0625H5.8125ZM4.5625 15.9375V7.8125H16.4375V15.9375H4.5625Z" fill="white"/>
</svg>