<svg width="51" height="52" viewBox="0 0 51 52" fill="none" xmlns="http://www.w3.org/2000/svg">
<g id="EnvelopeSimple">
<path id="Vector" d="M44.625 9.70996H6.375C5.74097 9.70996 5.1329 9.96183 4.68457 10.4102C4.23624 10.8585 3.98438 11.4666 3.98438 12.1006V39.1943C3.98438 40.2511 4.40416 41.2645 5.15137 42.0117C5.89859 42.7589 6.91203 43.1787 7.96875 43.1787H43.0312C44.088 43.1787 45.1014 42.7589 45.8486 42.0117C46.5958 41.2645 47.0156 40.2511 47.0156 39.1943V12.1006C47.0156 11.4666 46.7638 10.8585 46.3154 10.4102C45.8671 9.96183 45.259 9.70996 44.625 9.70996ZM38.4791 14.4912L25.5 26.3886L12.5209 14.4912H38.4791ZM8.76562 38.3975V17.5353L23.8843 31.3949C24.3253 31.7992 24.9018 32.0235 25.5 32.0235C26.0982 32.0235 26.6747 31.7992 27.1157 31.3949L42.2344 17.5353V38.3975H8.76562Z" fill="white"/>
</g>
</svg>
