<svg width="53" height="52" viewBox="0 0 53 52" fill="none" xmlns="http://www.w3.org/2000/svg">
<g id="FacebookLogo">
<path id="Vector" d="M26.8611 4.05908C22.5269 4.05908 18.29 5.34432 14.6863 7.75227C11.0825 10.1602 8.27376 13.5827 6.61514 17.587C4.95652 21.5913 4.52254 25.9975 5.3681 30.2484C6.21366 34.4993 8.30078 38.404 11.3655 41.4687C14.4302 44.5335 18.335 46.6206 22.5859 47.4661C26.8368 48.3117 31.243 47.8777 35.2472 46.2191C39.2515 44.5605 42.674 41.7517 45.082 38.1479C47.4899 34.5442 48.7752 30.3073 48.7752 25.9731C48.7687 20.1632 46.4578 14.593 42.3496 10.4847C38.2413 6.37639 32.6711 4.06553 26.8611 4.05908ZM29.296 42.8409V31.6546H33.3542C33.9999 31.6546 34.6192 31.398 35.0759 30.9414C35.5325 30.4848 35.789 29.8654 35.789 29.2197C35.789 28.5739 35.5325 27.9546 35.0759 27.4979C34.6192 27.0413 33.9999 26.7848 33.3542 26.7848H29.296V22.7266C29.296 22.0808 29.5525 21.4615 30.0092 21.0049C30.4658 20.5483 31.0851 20.2917 31.7309 20.2917H34.9774C35.6232 20.2917 36.2425 20.0352 36.6991 19.5786C37.1558 19.1219 37.4123 18.5026 37.4123 17.8568C37.4123 17.2111 37.1558 16.5917 36.6991 16.1351C36.2425 15.6785 35.6232 15.4219 34.9774 15.4219H31.7309C29.7936 15.4219 27.9356 16.1915 26.5657 17.5614C25.1958 18.9313 24.4262 20.7893 24.4262 22.7266V26.7848H20.368C19.7223 26.7848 19.1029 27.0413 18.6463 27.4979C18.1897 27.9546 17.9331 28.5739 17.9331 29.2197C17.9331 29.8654 18.1897 30.4848 18.6463 30.9414C19.1029 31.398 19.7223 31.6546 20.368 31.6546H24.4262V42.8409C20.1613 42.2253 16.2878 40.0171 13.5853 36.6607C10.8829 33.3043 9.552 29.0489 9.86058 24.7509C10.1692 20.4528 12.0943 16.4311 15.2485 13.4952C18.4028 10.5593 22.552 8.92716 26.8611 8.92716C31.1702 8.92716 35.3194 10.5593 38.4737 13.4952C41.6279 16.4311 43.553 20.4528 43.8616 24.7509C44.1702 29.0489 42.8393 33.3043 40.1369 36.6607C37.4344 40.0171 33.5609 42.2253 29.296 42.8409Z" fill="white"/>
</g>
</svg>
