<svg width="53" height="52" viewBox="0 0 53 52" fill="none" xmlns="http://www.w3.org/2000/svg">
<g id="InstagramLogo">
<path id="Vector" d="M26.9165 16.2336C24.9902 16.2336 23.1071 16.8048 21.5055 17.875C19.9038 18.9452 18.6555 20.4663 17.9183 22.246C17.1811 24.0256 16.9883 25.9839 17.3641 27.8732C17.7399 29.7625 18.6675 31.498 20.0296 32.8601C21.3917 34.2222 23.1271 35.1498 25.0164 35.5256C26.9057 35.9014 28.864 35.7085 30.6437 34.9713C32.4234 34.2342 33.9445 32.9858 35.0147 31.3842C36.0849 29.7825 36.6561 27.8995 36.6561 25.9731C36.6534 23.3909 35.6264 20.9151 33.8005 19.0892C31.9745 17.2632 29.4988 16.2362 26.9165 16.2336ZM26.9165 30.8429C25.9534 30.8429 25.0118 30.5573 24.211 30.0222C23.4102 29.4871 22.786 28.7266 22.4174 27.8367C22.0488 26.9469 21.9524 25.9677 22.1403 25.0231C22.3282 24.0784 22.792 23.2107 23.473 22.5297C24.1541 21.8486 25.0218 21.3848 25.9665 21.1969C26.9111 21.009 27.8903 21.1055 28.7801 21.474C29.6699 21.8426 30.4305 22.4668 30.9656 23.2676C31.5007 24.0685 31.7863 25.01 31.7863 25.9731C31.7863 27.2647 31.2732 28.5033 30.36 29.4166C29.4467 30.3299 28.2081 30.8429 26.9165 30.8429ZM36.6561 4.05908H17.1769C13.9492 4.06284 10.8548 5.34671 8.57242 7.62906C6.29007 9.9114 5.0062 13.0058 5.00244 16.2336V35.7127C5.0062 38.9404 6.29007 42.0349 8.57242 44.3172C10.8548 46.5996 13.9492 47.8834 17.1769 47.8872H36.6561C39.8838 47.8834 42.9782 46.5996 45.2606 44.3172C47.5429 42.0349 48.8268 38.9404 48.8306 35.7127V16.2336C48.8268 13.0058 47.5429 9.9114 45.2606 7.62906C42.9782 5.34671 39.8838 4.06284 36.6561 4.05908ZM43.9608 35.7127C43.9608 37.6501 43.1912 39.508 41.8213 40.8779C40.4514 42.2478 38.5934 43.0174 36.6561 43.0174H17.1769C15.2396 43.0174 13.3816 42.2478 12.0117 40.8779C10.6418 39.508 9.87223 37.6501 9.87223 35.7127V16.2336C9.87223 14.2962 10.6418 12.4383 12.0117 11.0684C13.3816 9.69847 15.2396 8.92887 17.1769 8.92887H36.6561C38.5934 8.92887 40.4514 9.69847 41.8213 11.0684C43.1912 12.4383 43.9608 14.2962 43.9608 16.2336V35.7127ZM40.7142 15.4219C40.7142 16.064 40.5238 16.6917 40.1671 17.2256C39.8104 17.7595 39.3033 18.1756 38.7101 18.4213C38.1169 18.6671 37.4641 18.7313 36.8344 18.6061C36.2046 18.4808 35.6261 18.1716 35.1721 17.7176C34.718 17.2635 34.4088 16.6851 34.2836 16.0553C34.1583 15.4255 34.2226 14.7728 34.4683 14.1795C34.714 13.5863 35.1302 13.0793 35.664 12.7225C36.1979 12.3658 36.8256 12.1754 37.4677 12.1754C38.3288 12.1754 39.1545 12.5174 39.7634 13.1263C40.3722 13.7351 40.7142 14.5609 40.7142 15.4219Z" fill="white"/>
</g>
</svg>
