<svg xmlns="http://www.w3.org/2000/svg" width="21" height="20" viewBox="0 0 21 20" fill="none">
  <path d="M10.5 4.6875C9.82013 4.6875 9.15552 4.88911 8.59023 5.26682C8.02493 5.64454 7.58434 6.1814 7.32416 6.80953C7.06399 7.43765 6.99591 8.12881 7.12855 8.79562C7.26119 9.46243 7.58858 10.0749 8.06932 10.5557C8.55006 11.0364 9.16257 11.3638 9.82938 11.4964C10.4962 11.6291 11.1874 11.561 11.8155 11.3008C12.4436 11.0407 12.9805 10.6001 13.3582 10.0348C13.7359 9.46948 13.9375 8.80487 13.9375 8.125C13.9365 7.21364 13.574 6.33989 12.9295 5.69546C12.2851 5.05103 11.4114 4.68853 10.5 4.6875ZM10.5 9.6875C10.191 9.6875 9.88887 9.59586 9.63192 9.42417C9.37497 9.25248 9.1747 9.00845 9.05644 8.72294C8.93818 8.43743 8.90723 8.12327 8.96752 7.82017C9.02781 7.51708 9.17663 7.23867 9.39515 7.02015C9.61367 6.80163 9.89208 6.65281 10.1952 6.59252C10.4983 6.53223 10.8124 6.56318 11.0979 6.68144C11.3835 6.7997 11.6275 6.99997 11.7992 7.25692C11.9709 7.51387 12.0625 7.81597 12.0625 8.125C12.0625 8.5394 11.8979 8.93683 11.6049 9.22985C11.3118 9.52288 10.9144 9.6875 10.5 9.6875ZM10.5 0.9375C8.59439 0.939568 6.76742 1.69748 5.41995 3.04495C4.07248 4.39242 3.31457 6.21939 3.3125 8.125C3.3125 14.1687 9.69063 18.7031 9.9625 18.893C10.1201 19.0032 10.3077 19.0624 10.5 19.0624C10.6923 19.0624 10.8799 19.0032 11.0375 18.893C12.2455 18.0027 13.3508 16.9808 14.3328 15.8461C16.5273 13.3258 17.6875 10.6539 17.6875 8.125C17.6854 6.21939 16.9275 4.39242 15.58 3.04495C14.2326 1.69748 12.4056 0.939568 10.5 0.9375ZM12.9453 14.5867C12.2004 15.4424 11.3822 16.2313 10.5 16.9445C9.6178 16.2313 8.79958 15.4424 8.05469 14.5867C6.75 13.0758 5.1875 10.7273 5.1875 8.125C5.1875 6.71604 5.74721 5.36478 6.7435 4.3685C7.73978 3.37221 9.09104 2.8125 10.5 2.8125C11.909 2.8125 13.2602 3.37221 14.2565 4.3685C15.2528 5.36478 15.8125 6.71604 15.8125 8.125C15.8125 10.7273 14.25 13.0758 12.9453 14.5867Z" fill="white"/>
</svg>