<svg xmlns="http://www.w3.org/2000/svg" width="40" height="22" viewBox="0 0 40 22" fill="none">
<g id="vector">
<path d="M39.3459 3.09585L21.2209 21.2209C21.0525 21.3894 20.8526 21.5231 20.6326 21.6143C20.4126 21.7055 20.1767 21.7524 19.9385 21.7524C19.7003 21.7524 19.4645 21.7055 19.2444 21.6143C19.0244 21.5231 18.8245 21.3894 18.6562 21.2209L0.531164 3.09585C0.191065 2.75575 0 2.29448 0 1.81351C0 1.33254 0.191065 0.871262 0.531164 0.531163C0.871263 0.191064 1.33254 0 1.81351 0C2.29448 0 2.75575 0.191064 3.09585 0.531163L19.9385 17.3761L36.7812 0.531163C36.9496 0.362763 37.1495 0.229182 37.3695 0.138044C37.5895 0.0469069 37.8254 0 38.0635 0C38.3017 0 38.5375 0.0469069 38.7575 0.138044C38.9775 0.229182 39.1775 0.362763 39.3459 0.531163C39.5143 0.699563 39.6478 0.899483 39.739 1.11951C39.8301 1.33953 39.877 1.57535 39.877 1.81351C39.877 2.05166 39.8301 2.28748 39.739 2.50751C39.6478 2.72753 39.5143 2.92745 39.3459 3.09585Z" fill="white" fill-opacity="0.36"/>
</g>
</svg>