<svg width="52" height="52" viewBox="0 0 52 52" fill="none" xmlns="http://www.w3.org/2000/svg">
<g id="TiktokLogo">
<path id="Vector" d="M45.4513 13.7984C43.0843 13.7957 40.815 12.8542 39.1413 11.1805C37.4675 9.50676 36.5261 7.23746 36.5234 4.87044C36.5234 4.22467 36.2668 3.60534 35.8102 3.14871C35.3536 2.69208 34.7343 2.43555 34.0885 2.43555H25.9722C25.3264 2.43555 24.7071 2.69208 24.2504 3.14871C23.7938 3.60534 23.5373 4.22467 23.5373 4.87044V31.6543C23.5369 32.2353 23.3806 32.8055 23.0848 33.3055C22.7889 33.8055 22.3643 34.2169 21.8552 34.4969C21.3462 34.7768 20.7713 34.9151 20.1906 34.8972C19.6099 34.8792 19.0447 34.7058 18.5538 34.395C18.063 34.0842 17.6646 33.6473 17.4001 33.13C17.1356 32.6128 17.0148 32.034 17.0503 31.4541C17.0857 30.8742 17.2761 30.3145 17.6016 29.8332C17.9271 29.352 18.3758 28.9669 18.9008 28.7182C19.3168 28.5206 19.6682 28.209 19.9142 27.8197C20.1602 27.4304 20.2908 26.9792 20.2907 26.5187V17.8566C20.2906 17.5008 20.2125 17.1494 20.0619 16.8271C19.9114 16.5048 19.692 16.2193 19.4193 15.9909C19.1466 15.7625 18.8271 15.5966 18.4834 15.5049C18.1397 15.4132 17.78 15.398 17.4297 15.4602C13.6795 16.1462 10.2943 18.1408 7.87683 21.0889C5.41511 24.0601 4.06489 27.7958 4.05811 31.6543C4.05811 35.9595 5.76832 40.0883 8.81254 43.1325C11.8567 46.1767 15.9856 47.8869 20.2907 47.8869C24.5959 47.8869 28.7247 46.1767 31.769 43.1325C34.8132 40.0883 36.5234 35.9595 36.5234 31.6543V24.8914C39.3325 26.1451 42.3751 26.7903 45.4513 26.7845C46.0971 26.7845 46.7164 26.528 47.1731 26.0713C47.6297 25.6147 47.8862 24.9954 47.8862 24.3496V16.2333C47.8862 15.5875 47.6297 14.9682 47.1731 14.5116C46.7164 14.0549 46.0971 13.7984 45.4513 13.7984ZM43.0164 21.7422C40.3053 21.3587 37.7284 20.3203 35.5088 18.7169C35.1448 18.4555 34.7158 18.2996 34.2689 18.2664C33.8219 18.2332 33.3745 18.324 32.9759 18.5287C32.5773 18.7335 32.2429 19.0443 32.0096 19.4269C31.7763 19.8095 31.6531 20.2491 31.6536 20.6973V31.6543C31.6536 34.6679 30.4564 37.5581 28.3255 39.689C26.1945 41.82 23.3044 43.0171 20.2907 43.0171C17.2771 43.0171 14.3869 41.82 12.256 39.689C10.1251 37.5581 8.9279 34.6679 8.9279 31.6543C8.9354 29.4803 9.54641 27.351 10.6929 25.5038C11.8393 23.6566 13.4761 22.164 15.421 21.1924V25.1612C14.3142 25.9913 13.4379 27.0906 12.8755 28.3545C12.313 29.6185 12.083 31.0053 12.2072 32.3832C12.3315 33.7611 12.8059 35.0843 13.5854 36.2273C14.3649 37.3703 15.4236 38.295 16.661 38.9138C17.8984 39.5325 19.2735 39.8246 20.6556 39.7624C22.0376 39.7002 23.3809 39.2858 24.5577 38.5585C25.7346 37.8311 26.706 36.815 27.3797 35.6067C28.0534 34.3983 28.4071 33.0378 28.4071 31.6543V7.30534H31.8687C32.3715 10.0772 33.7082 12.6296 35.7002 14.6216C37.6922 16.6136 40.2446 17.9503 43.0164 18.4531V21.7422Z" fill="white"/>
</g>
</svg>
