<svg width="80" height="80" viewBox="0 0 80 80" fill="none" xmlns="http://www.w3.org/2000/svg">
<g id="MegaphoneSimple">
<path id="Vector" d="M68.9187 27.0824L13.9 10.2074C13.1553 9.99025 12.3703 9.9493 11.6071 10.0878C10.8439 10.2263 10.1233 10.5405 9.5025 11.0056C8.88165 11.4706 8.37751 12.0737 8.02996 12.7672C7.68241 13.4607 7.50097 14.2255 7.5 15.0012V60.0012C7.5 61.3273 8.02678 62.5991 8.96447 63.5367C9.90215 64.4744 11.1739 65.0012 12.5 65.0012C12.9781 65.0014 13.4538 64.933 13.9125 64.7981L40 56.7918V60.0012C40 61.3273 40.5268 62.5991 41.4645 63.5367C42.4021 64.4744 43.6739 65.0012 45 65.0012H55C56.3261 65.0012 57.5979 64.4744 58.5355 63.5367C59.4732 62.5991 60 61.3273 60 60.0012V50.6575L68.9187 47.9231C69.951 47.6129 70.8562 46.9793 71.501 46.1157C72.1458 45.252 72.496 44.204 72.5 43.1262V31.8762C72.4953 30.7989 72.1448 29.7516 71.5001 28.8886C70.8553 28.0256 69.9505 27.3924 68.9187 27.0824ZM55 60.0012H45V55.2575L55 52.1887V60.0012ZM67.5 43.1262H67.4656L45 50.0262V24.9731L67.4656 31.8762H67.5V43.1262Z" fill="white"/>
</g>
</svg>
